<mxfile host="app.diagrams.net" modified="2023-12-18T13:36:25.862Z" agent="Mozilla/5.0 (Macintosh; Intel Mac OS X 10_15_7) AppleWebKit/537.36 (KHTML, like Gecko) Chrome/120.0.0.0 Safari/537.36" version="22.1.11" etag="ZsNNsy-xg6JM5Y0D55LL" type="github">
  <diagram name="페이지-1" id="Kc5RPoXVoBDodMULg7eP">
    <mxGraphModel>
      <root>
        <mxCell id="0" />
        <mxCell id="1" parent="0" />
      </root>
    </mxGraphModel>
  </diagram>
</mxfile>
